PathFileType	4	(X/Y/Z)	C:\Users\italobelli\Desktop\GitHub\PTbot_officialCBL\Personal_Results\FLX01_noisy2.trc
DataRate	CameraRate	NumFrames	NumMarkers	Units	OrigDataRate	OrigDataStartFrame	OrigNumFrames
106.533333	106.533333	38	9	m	106.533333	1	800
Frame#	Time		gu		centelbow		EpL		centpxt8		centijc7		ij		ts		aa		ai
			X1	Y1	Z1	X2	Y2	Z2	X3	Y3	Z3	X4	Y4	Z4	X5	Y5	Z5	X6	Y6	Z6	X7	Y7	Z7	X8	Y8	Z8	X9	Y9	Z9

1	0	-0.080285	-0.017057	0.16684	-0.10923	-0.25686	0.18705	-0.092679	-0.2532	0.21448	-0.046816	-0.15316	-0.008669	-0.046816	0.031938	-0.008669	0	0	0	-0.13667	0.025119	0.050045	-0.11176	0.019443	0.16654	-0.15067	-0.087493	0.052889
2	0.0093867	-0.080266	-0.017066	0.16687	-0.10985	-0.25681	0.18695	-0.093259	-0.25324	0.21438	-0.046816	-0.15316	-0.008669	-0.046816	0.031938	-0.008669	0	0	0	-0.13662	0.025145	0.050054	-0.11175	0.019445	0.16656	-0.15063	-0.087467	0.052873
3	0.018773	-0.080246	-0.017075	0.16691	-0.11044	-0.25677	0.18685	-0.09382	-0.25326	0.21429	-0.046816	-0.15316	-0.008669	-0.046816	0.031938	-0.008669	0	0	0	-0.13657	0.025168	0.050063	-0.11173	0.019446	0.16658	-0.1506	-0.087442	0.05286
4	0.02816	-0.080224	-0.017085	0.16694	-0.11101	-0.25672	0.18676	-0.094361	-0.25329	0.21421	-0.046816	-0.15316	-0.008669	-0.046816	0.031938	-0.008669	0	0	0	-0.13651	0.02519	0.050073	-0.11172	0.019447	0.1666	-0.15056	-0.087419	0.05285
5	0.037547	-0.080201	-0.017096	0.16698	-0.11156	-0.25667	0.18668	-0.094882	-0.2533	0.21414	-0.046816	-0.15316	-0.008669	-0.046816	0.031938	-0.008669	0	0	0	-0.13646	0.02521	0.050083	-0.1117	0.019447	0.16662	-0.15053	-0.087398	0.052842
6	0.046934	-0.080176	-0.017108	0.16701	-0.11209	-0.25662	0.1866	-0.095381	-0.25331	0.21407	-0.046816	-0.15316	-0.008669	-0.046816	0.031938	-0.008669	0	0	0	-0.13641	0.025228	0.050094	-0.11168	0.019446	0.16664	-0.15049	-0.087379	0.052836
7	0.05632	-0.080149	-0.01712	0.16704	-0.1126	-0.25656	0.18653	-0.095859	-0.25331	0.21401	-0.046816	-0.15316	-0.008669	-0.046816	0.031938	-0.008669	0	0	0	-0.13637	0.025244	0.050106	-0.11167	0.019445	0.16666	-0.15046	-0.087361	0.052833
8	0.065707	-0.080121	-0.017133	0.16707	-0.11308	-0.25651	0.18647	-0.096315	-0.25331	0.21395	-0.046816	-0.15316	-0.008669	-0.046816	0.031938	-0.008669	0	0	0	-0.13632	0.025258	0.050118	-0.11165	0.019444	0.16668	-0.15043	-0.087345	0.052832
9	0.075094	-0.080092	-0.017146	0.1671	-0.11353	-0.25645	0.18642	-0.096748	-0.25329	0.2139	-0.046816	-0.15316	-0.008669	-0.046816	0.031938	-0.008669	0	0	0	-0.13627	0.025271	0.050131	-0.11163	0.019442	0.1667	-0.1504	-0.087331	0.052833
10	0.084481	-0.080061	-0.017161	0.16713	-0.11397	-0.25639	0.18637	-0.097158	-0.25328	0.21386	-0.046816	-0.15316	-0.008669	-0.046816	0.031938	-0.008669	0	0	0	-0.13623	0.025281	0.050145	-0.11161	0.019439	0.16672	-0.15037	-0.087318	0.052836
11	0.093867	-0.080028	-0.017175	0.16716	-0.11437	-0.25633	0.18633	-0.097544	-0.25326	0.21383	-0.046816	-0.15316	-0.008669	-0.046816	0.031938	-0.008669	0	0	0	-0.13618	0.02529	0.050159	-0.11159	0.019436	0.16674	-0.15035	-0.087306	0.052841
12	0.10325	-0.079994	-0.017191	0.16719	-0.11475	-0.25627	0.1863	-0.097906	-0.25323	0.2138	-0.046816	-0.15316	-0.008669	-0.046816	0.031938	-0.008669	0	0	0	-0.13614	0.025298	0.050173	-0.11157	0.019432	0.16676	-0.15032	-0.087297	0.052849
13	0.11264	-0.079959	-0.017206	0.16722	-0.11511	-0.25621	0.18627	-0.098243	-0.25319	0.21378	-0.046816	-0.15316	-0.008669	-0.046816	0.031938	-0.008669	0	0	0	-0.1361	0.025303	0.050188	-0.11155	0.019428	0.16678	-0.1503	-0.087288	0.052858
14	0.12203	-0.079923	-0.017223	0.16724	-0.11544	-0.25615	0.18625	-0.098554	-0.25316	0.21377	-0.046816	-0.15316	-0.008669	-0.046816	0.031938	-0.008669	0	0	0	-0.13606	0.025308	0.050204	-0.11153	0.019424	0.1668	-0.15027	-0.087282	0.05287
15	0.13141	-0.079885	-0.01724	0.16727	-0.11574	-0.25609	0.18624	-0.09884	-0.25311	0.21377	-0.046816	-0.15316	-0.008669	-0.046816	0.031938	-0.008669	0	0	0	-0.13602	0.02531	0.05022	-0.11151	0.019419	0.16682	-0.15025	-0.087276	0.052883
16	0.1408	-0.079846	-0.017257	0.16729	-0.11601	-0.25602	0.18623	-0.099099	-0.25307	0.21377	-0.046816	-0.15316	-0.008669	-0.046816	0.031938	-0.008669	0	0	0	-0.13598	0.025311	0.050236	-0.11149	0.019413	0.16683	-0.15023	-0.087272	0.052898
17	0.15019	-0.079805	-0.017275	0.16732	-0.11625	-0.25595	0.18624	-0.099331	-0.25301	0.21378	-0.046816	-0.15316	-0.008669	-0.046816	0.031938	-0.008669	0	0	0	-0.13595	0.025311	0.050253	-0.11147	0.019408	0.16685	-0.15021	-0.08727	0.052914
18	0.15957	-0.079764	-0.017293	0.16734	-0.11647	-0.25589	0.18625	-0.099535	-0.25296	0.2138	-0.046816	-0.15316	-0.008669	-0.046816	0.031938	-0.008669	0	0	0	-0.13591	0.025309	0.05027	-0.11145	0.019401	0.16687	-0.15019	-0.087269	0.052932
19	0.16896	-0.079721	-0.017312	0.16737	-0.11665	-0.25582	0.18626	-0.099711	-0.2529	0.21382	-0.046816	-0.15316	-0.008669	-0.046816	0.031938	-0.008669	0	0	0	-0.13588	0.025306	0.050288	-0.11142	0.019395	0.16689	-0.15017	-0.087269	0.052952
20	0.17835	-0.079677	-0.017331	0.16739	-0.11681	-0.25575	0.18629	-0.099858	-0.25283	0.21385	-0.046816	-0.15316	-0.008669	-0.046816	0.031938	-0.008669	0	0	0	-0.13585	0.025301	0.050305	-0.1114	0.019388	0.16691	-0.15016	-0.087271	0.052973
21	0.18773	-0.079632	-0.01735	0.16742	-0.11693	-0.25568	0.18632	-0.099977	-0.25276	0.21389	-0.046816	-0.15316	-0.008669	-0.046816	0.031938	-0.008669	0	0	0	-0.13582	0.025296	0.050324	-0.11138	0.019381	0.16692	-0.15014	-0.087274	0.052996
22	0.19712	-0.079585	-0.01737	0.16744	-0.11702	-0.25561	0.18636	-0.10006	-0.25269	0.21393	-0.046816	-0.15316	-0.008669	-0.046816	0.031938	-0.008669	0	0	0	-0.13579	0.025288	0.050342	-0.11135	0.019374	0.16694	-0.15013	-0.087279	0.05302
23	0.20651	-0.079538	-0.01739	0.16746	-0.11708	-0.25554	0.1864	-0.10012	-0.25262	0.21398	-0.046816	-0.15316	-0.008669	-0.046816	0.031938	-0.008669	0	0	0	-0.13577	0.02528	0.050361	-0.11133	0.019366	0.16696	-0.15011	-0.087284	0.053045
24	0.21589	-0.079489	-0.017411	0.16748	-0.11711	-0.25546	0.18646	-0.10015	-0.25254	0.21404	-0.046816	-0.15316	-0.008669	-0.046816	0.031938	-0.008669	0	0	0	-0.13574	0.02527	0.050381	-0.1113	0.019358	0.16698	-0.1501	-0.087291	0.053071
25	0.22528	-0.07944	-0.017432	0.1675	-0.11711	-0.25539	0.18652	-0.10014	-0.25246	0.21411	-0.046816	-0.15316	-0.008669	-0.046816	0.031938	-0.008669	0	0	0	-0.13572	0.02526	0.0504	-0.11128	0.01935	0.16699	-0.15009	-0.0873	0.053099
26	0.23467	-0.079389	-0.017453	0.16752	-0.11707	-0.25532	0.18659	-0.10011	-0.25237	0.21418	-0.046816	-0.15316	-0.008669	-0.046816	0.031938	-0.008669	0	0	0	-0.1357	0.025248	0.05042	-0.11125	0.019341	0.16701	-0.15008	-0.087309	0.053127
27	0.24406	-0.079338	-0.017474	0.16754	-0.117	-0.25524	0.18666	-0.10004	-0.25229	0.21426	-0.046816	-0.15316	-0.008669	-0.046816	0.031938	-0.008669	0	0	0	-0.13568	0.025235	0.05044	-0.11123	0.019333	0.16702	-0.15007	-0.08732	0.053157
28	0.25344	-0.079285	-0.017495	0.16756	-0.1169	-0.25517	0.18674	-0.099936	-0.2522	0.21435	-0.046816	-0.15316	-0.008669	-0.046816	0.031938	-0.008669	0	0	0	-0.13566	0.025221	0.05046	-0.1112	0.019324	0.16704	-0.15006	-0.087332	0.053188
29	0.26283	-0.079232	-0.017517	0.16757	-0.11676	-0.25509	0.18684	-0.0998	-0.25211	0.21444	-0.046816	-0.15316	-0.008669	-0.046816	0.031938	-0.008669	0	0	0	-0.13565	0.025206	0.05048	-0.11118	0.019315	0.16706	-0.15006	-0.087345	0.053219
30	0.27222	-0.079177	-0.017539	0.16759	-0.11658	-0.25502	0.18693	-0.09963	-0.25201	0.21454	-0.046816	-0.15316	-0.008669	-0.046816	0.031938	-0.008669	0	0	0	-0.13564	0.02519	0.050501	-0.11115	0.019305	0.16707	-0.15005	-0.087359	0.053252
31	0.2816	-0.079122	-0.017561	0.16761	-0.11637	-0.25494	0.18704	-0.099424	-0.25192	0.21465	-0.046816	-0.15316	-0.008669	-0.046816	0.031938	-0.008669	0	0	0	-0.13563	0.025173	0.050522	-0.11113	0.019296	0.16709	-0.15005	-0.087374	0.053285
32	0.29099	-0.079066	-0.017583	0.16762	-0.11612	-0.25486	0.18715	-0.099184	-0.25182	0.21477	-0.046816	-0.15316	-0.008669	-0.046816	0.031938	-0.008669	0	0	0	-0.13562	0.025155	0.050543	-0.1111	0.019286	0.1671	-0.15004	-0.08739	0.053318
33	0.30038	-0.079009	-0.017605	0.16764	-0.11583	-0.25479	0.18728	-0.098907	-0.25172	0.21489	-0.046816	-0.15316	-0.008669	-0.046816	0.031938	-0.008669	0	0	0	-0.13561	0.025136	0.050564	-0.11107	0.019277	0.16712	-0.15004	-0.087408	0.053353
34	0.30976	-0.078951	-0.017628	0.16765	-0.11551	-0.25471	0.1874	-0.098594	-0.25163	0.21502	-0.046816	-0.15316	-0.008669	-0.046816	0.031938	-0.008669	0	0	0	-0.13561	0.025117	0.050585	-0.11105	0.019267	0.16713	-0.15004	-0.087426	0.053388
35	0.31915	-0.078893	-0.01765	0.16767	-0.11515	-0.25463	0.18754	-0.098244	-0.25153	0.21515	-0.046816	-0.15316	-0.008669	-0.046816	0.031938	-0.008669	0	0	0	-0.13561	0.025096	0.050606	-0.11102	0.019257	0.16715	-0.15004	-0.087446	0.053423
36	0.32854	-0.078834	-0.017673	0.16768	-0.11475	-0.25456	0.18769	-0.097857	-0.25142	0.2153	-0.046816	-0.15316	-0.008669	-0.046816	0.031938	-0.008669	0	0	0	-0.13561	0.025075	0.050627	-0.11099	0.019247	0.16716	-0.15004	-0.087466	0.053459
37	0.33792	-0.078774	-0.017695	0.16769	-0.11431	-0.25448	0.18784	-0.097431	-0.25132	0.21545	-0.046816	-0.15316	-0.008669	-0.046816	0.031938	-0.008669	0	0	0	-0.13562	0.025053	0.050649	-0.11097	0.019237	0.16717	-0.15004	-0.087488	0.053495
38	0.34731	-0.078713	-0.017718	0.16771	-0.11384	-0.2544	0.188	-0.096966	-0.25122	0.21561	-0.046816	-0.15316	-0.008669	-0.046816	0.031938	-0.008669	0	0	0	-0.13562	0.025031	0.05067	-0.11094	0.019228	0.16719	-0.15004	-0.08751	0.053531
